<?xml version="1.0" encoding="UTF-8"?>
<svg xmlns="http://www.w3.org/2000/svg" viewBox="0 0 37.02 44.91">
  <g id="_лой_1" data-name="Слой 1"/>
  <g id="_лой_2" data-name="Слой 2">
    <g id="_лой_1-2" data-name="Слой 1">
      <g>
        <g>
          <polygon points="7.73 23.79 8.55 21.26 8.54 21.26 3.8 10.83 10.71 14.49 10.72 14.49 11.28 12.72 11.28 12.72 11.27 12.76 0 6.8 7.73 23.79 7.73 23.79" style="fill: #f1f1f1;"/>
          <polygon points="21.09 17.95 20.53 19.68 33.97 26.79 17.94 41.89 15.08 35.62 15.08 35.62 13.15 35.68 17.35 44.91 36.66 26.71 37.02 26.38 21.09 17.95" style="fill: #f1f1f1;"/>
        </g>
        <path d="M21.92,3.92l.15-.46-2.27,.03-1.89,.02-3.68,.05-1.26,3.93h0L7.74,23.79h0l-1.31,4.08-.52,1.62h0l-3.16,9.84,7.9-.25,1.08-3.35,.58-1.81L21.92,3.92ZM9.34,37.33l-4.1,.13L15.54,5.33l4.07-.05L9.34,37.33Z" style="fill: #f1f1f1;"/>
        <polygon points="19 .1 17.9 3.52 19.79 3.49 20.31 1.87 24.38 1.82 14.11 33.86 12.3 33.92 11.72 35.73 11.83 35.72 15.42 35.61 15.42 35.61 20.53 19.68 20.53 19.68 21.19 17.62 26.84 0 19 .1" style="fill: #f1f1f1;"/>
      </g>
    </g>
  </g>
</svg>