<?xml version="1.0" standalone="no"?>
<!DOCTYPE svg PUBLIC "-//W3C//DTD SVG 20010904//EN"
 "http://www.w3.org/TR/2001/REC-SVG-20010904/DTD/svg10.dtd">
<svg version="1.0" xmlns="http://www.w3.org/2000/svg"
 width="720.000000pt" height="720.000000pt" viewBox="0 0 720.000000 720.000000"
 preserveAspectRatio="xMidYMid meet">
<metadata>
Created by potrace 1.14, written by Peter Selinger 2001-2017
</metadata>
<g transform="translate(0.000000,720.000000) scale(0.100000,-0.100000)"
fill="#000000" stroke="none">
<path d="M4266 7193 c-1 -1 -133 -3 -294 -5 l-293 -3 -80 -250 c-44 -137 -85
-261 -90 -275 l-9 -25 -287 -3 c-279 -2 -313 -6 -313 -35 0 -9 -118 -385 -155
-492 -20 -57 -187 -578 -190 -590 -1 -5 -5 -17 -8 -25 -3 -8 -29 -88 -58 -178
-36 -117 -54 -160 -63 -154 -6 5 -65 38 -131 72 -66 34 -142 75 -170 90 -27
15 -104 56 -170 91 -66 35 -156 82 -200 106 -44 23 -102 53 -130 67 -55 28
-215 113 -255 136 -14 8 -27 15 -30 15 -5 1 -16 7 -150 80 -47 25 -97 52 -112
58 -16 6 -28 15 -28 19 0 4 -7 8 -16 8 -9 0 -29 9 -45 21 -16 11 -36 22 -43
23 -8 1 -20 7 -27 12 -8 6 -34 21 -59 33 -25 13 -87 45 -137 72 l-93 49 26
-57 c68 -151 128 -283 201 -443 108 -235 110 -241 196 -430 41 -91 89 -196
107 -235 17 -38 41 -90 52 -115 11 -25 24 -52 29 -62 4 -9 39 -85 78 -170 38
-84 81 -179 95 -210 14 -31 85 -186 157 -345 72 -158 141 -308 152 -333 12
-25 22 -47 22 -50 2 -5 25 -56 86 -188 22 -46 39 -87 39 -90 0 -4 -32 -104
-71 -222 -39 -118 -72 -223 -74 -233 -2 -10 -14 -45 -26 -79 -11 -33 -22 -65
-24 -72 -1 -6 -5 -18 -8 -26 -3 -8 -37 -114 -76 -235 -39 -121 -80 -251 -93
-290 -12 -38 -23 -72 -23 -75 -1 -3 -4 -12 -8 -20 -3 -8 -35 -109 -72 -225
-36 -115 -71 -226 -78 -245 -6 -19 -11 -37 -12 -40 0 -3 -5 -18 -12 -35 -6
-16 -30 -91 -53 -165 -23 -74 -50 -157 -59 -185 -62 -176 -108 -334 -97 -338
6 -2 31 -2 56 -1 25 1 144 5 265 9 121 4 265 8 320 10 265 9 524 17 562 17 24
1 47 6 52 12 4 6 25 65 45 131 20 66 40 127 43 135 4 8 7 17 8 20 0 3 18 57
38 121 27 83 42 118 55 121 9 2 62 3 116 3 l99 0 45 -100 c24 -55 64 -142 88
-194 24 -51 44 -95 44 -96 0 -4 36 -83 111 -243 21 -46 39 -87 39 -91 0 -3 9
-23 20 -44 11 -20 41 -83 66 -140 50 -111 57 -127 180 -397 21 -47 48 -104 59
-128 l20 -42 77 72 c148 141 333 316 373 353 22 21 99 92 170 160 72 67 146
137 165 155 19 18 100 93 179 169 80 75 159 150 176 166 18 17 91 85 163 153
71 67 147 139 168 159 185 173 264 247 318 298 35 33 125 119 201 190 139 130
261 246 360 340 29 28 97 91 151 141 55 51 122 114 150 140 28 27 111 105 184
174 73 69 161 151 194 184 34 32 76 71 94 86 l33 27 -33 20 c-18 11 -67 37
-108 58 -41 21 -96 51 -122 67 -27 15 -48 25 -48 23 0 -3 -18 6 -40 20 -22 14
-42 25 -44 25 -2 0 -32 16 -66 35 -34 19 -68 35 -75 35 -7 0 -15 4 -17 8 -1 5
-75 46 -163 92 -88 46 -187 97 -220 115 -141 75 -236 126 -330 175 -55 29
-122 65 -150 80 -27 15 -105 56 -173 91 -67 35 -144 75 -170 89 -26 14 -110
59 -187 99 -77 41 -163 87 -192 102 -96 52 -328 173 -370 194 -24 11 -43 26
-43 34 0 8 30 107 66 220 36 113 77 242 91 286 14 44 28 87 31 95 3 8 6 18 7
23 2 4 3 8 5 10 1 1 3 9 5 17 2 8 14 49 28 90 30 91 151 463 152 470 1 3 7 25
15 50 7 25 15 50 16 55 1 6 24 73 49 150 26 77 48 145 49 150 2 6 5 17 9 25 3
8 29 89 57 180 29 91 68 212 87 270 19 58 36 110 37 115 8 32 39 132 44 140 4
6 8 16 9 23 5 19 9 36 16 52 17 45 137 429 137 438 0 8 -91 11 -331 9 -182 -1
-331 -3 -333 -4z m271 -297 c-2 -6 -18 -58 -36 -116 -18 -58 -36 -114 -41
-125 -7 -16 -61 -187 -65 -205 -1 -3 -12 -39 -25 -80 -13 -41 -24 -77 -25 -80
0 -3 -5 -18 -12 -35 -14 -36 -84 -254 -87 -269 -4 -18 -146 -458 -163 -501 -8
-22 -14 -40 -12 -40 1 0 -6 -25 -16 -55 -11 -30 -20 -57 -20 -60 -1 -3 -12
-39 -25 -80 -13 -41 -24 -77 -24 -80 -1 -3 -6 -18 -13 -35 -6 -16 -39 -118
-73 -225 -62 -195 -95 -299 -231 -720 -40 -124 -74 -229 -75 -235 -1 -5 -23
-73 -49 -150 -25 -77 -48 -147 -50 -156 -2 -9 -22 -74 -45 -145 -59 -181 -64
-198 -66 -206 -1 -5 -3 -10 -4 -13 -1 -3 -3 -8 -5 -12 -1 -5 -4 -15 -7 -23 -8
-20 -111 -342 -114 -355 -1 -5 -19 -62 -40 -125 -21 -63 -38 -117 -39 -120 -1
-7 -10 -34 -70 -220 -29 -91 -87 -273 -130 -405 -42 -132 -80 -243 -84 -247
-9 -10 -281 -18 -281 -9 0 8 46 153 140 446 27 83 76 236 109 340 33 105 66
204 72 220 9 27 56 174 63 200 1 6 30 97 65 202 34 106 62 195 62 198 0 2 9
28 20 57 10 29 19 61 19 70 0 10 5 18 12 18 6 0 9 3 6 6 -4 3 5 38 19 77 13
40 26 80 28 90 2 10 25 82 50 160 26 77 48 149 50 159 2 10 6 22 10 27 4 8 59
178 69 216 2 6 6 17 9 25 3 8 20 60 37 115 17 55 32 105 34 110 2 6 4 12 4 15
0 3 7 23 15 45 18 47 121 369 119 372 -1 2 5 18 14 38 8 19 14 36 13 37 0 2 2
10 5 18 2 8 15 47 27 85 13 39 24 75 25 80 3 14 74 236 81 255 3 8 7 20 9 25
5 20 55 181 61 195 4 8 7 17 8 20 3 13 107 337 112 350 8 19 11 31 16 50 5 25
147 462 163 504 8 21 12 41 9 45 -4 3 -85 5 -182 4 -174 -1 -175 -1 -168 21 3
11 8 28 10 36 2 8 17 56 32 105 l29 90 70 5 c147 11 585 8 581 -4z m-772 -545
c12 -1 11 -10 -6 -53 -12 -29 -23 -63 -25 -75 -2 -13 -15 -53 -28 -90 -21 -60
-59 -179 -61 -193 -1 -5 -126 -393 -170 -525 -43 -131 -109 -340 -111 -350 -1
-5 -20 -66 -43 -135 -52 -157 -82 -251 -167 -515 -36 -115 -84 -264 -106 -330
-21 -66 -41 -128 -43 -138 -2 -10 -13 -44 -24 -75 -25 -74 -93 -284 -95 -297
-1 -5 -22 -68 -45 -140 -24 -71 -44 -134 -45 -140 -2 -5 -31 -98 -66 -205 -35
-107 -65 -199 -66 -205 -1 -5 -28 -89 -59 -185 -31 -96 -93 -287 -137 -425
-44 -137 -94 -293 -111 -345 -17 -52 -32 -97 -32 -100 0 -3 -10 -34 -22 -70
-23 -71 -146 -452 -149 -460 -1 -3 -5 -20 -9 -38 -4 -18 -12 -35 -17 -38 -15
-9 -61 -12 -298 -19 -118 -3 -245 -7 -282 -9 -77 -2 -79 0 -52 75 9 24 17 49
18 54 4 20 58 191 66 210 5 11 34 101 65 200 31 99 59 187 62 195 3 8 7 20 8
25 2 6 42 132 90 280 48 149 98 306 112 350 13 44 30 94 36 110 6 17 12 35 14
40 8 38 13 55 26 90 9 22 39 114 67 205 29 91 62 197 75 235 13 39 58 178 100
310 42 132 88 276 103 320 14 44 27 82 27 85 1 3 4 12 7 20 3 8 26 80 52 160
25 80 59 186 74 235 16 50 41 126 55 170 14 44 58 181 98 305 40 124 74 230
75 235 1 6 19 62 40 125 21 63 39 120 40 125 1 6 9 30 17 55 19 56 74 227 167
520 40 124 86 268 104 320 l31 95 255 3 c140 1 258 4 263 5 6 2 80 1 122 -2z
m-2459 -922 c32 -17 93 -49 134 -71 41 -22 136 -72 210 -111 74 -38 144 -75
156 -82 11 -7 76 -42 145 -78 173 -90 242 -127 258 -141 8 -6 17 -10 20 -9 4
1 97 -47 119 -62 1 -1 -13 -49 -32 -106 -56 -171 -108 -333 -110 -344 -3 -14
-166 -517 -173 -535 -3 -8 -7 -22 -9 -31 -2 -9 -8 -29 -15 -45 l-11 -29 -12
35 c-7 19 -28 67 -46 105 -17 39 -43 95 -57 125 -14 30 -33 73 -43 95 -53 115
-93 204 -207 455 -69 151 -138 304 -155 339 -28 60 -78 172 -143 316 -29 66
-73 160 -87 188 -11 22 -11 22 58 -14z m2769 -1464 c72 -38 153 -80 180 -95
28 -15 100 -53 160 -85 61 -32 144 -76 185 -98 73 -39 142 -75 305 -161 218
-114 361 -190 422 -222 149 -80 336 -179 493 -261 52 -28 132 -70 178 -94 l83
-43 -83 -79 c-46 -43 -127 -119 -180 -169 -53 -50 -121 -114 -151 -142 -46
-44 -215 -203 -366 -344 -105 -98 -432 -406 -496 -467 -37 -36 -276 -261 -361
-340 -17 -16 -93 -88 -169 -160 -76 -71 -145 -137 -155 -145 -9 -8 -84 -79
-166 -156 -82 -78 -176 -167 -209 -197 -33 -31 -98 -92 -145 -136 -47 -45 -87
-81 -90 -81 -3 0 -45 89 -95 198 -165 365 -178 393 -238 522 -19 41 -47 102
-61 135 -15 33 -35 77 -46 98 -20 40 -22 37 23 51 8 2 36 75 64 163 29 87 80
246 114 353 35 107 64 200 65 205 1 6 16 51 32 100 16 50 62 191 102 315 39
124 82 257 95 295 12 39 49 151 80 250 31 99 65 205 76 235 10 30 52 163 94
295 42 132 79 247 82 255 4 8 7 17 8 20 1 3 6 20 10 38 5 22 11 29 19 24 6 -5
70 -40 141 -77z"/>
</g>
</svg>
