<?xml version="1.0" encoding="UTF-8"?>
<svg xmlns="http://www.w3.org/2000/svg" viewBox="0 0 19.77 23.98">
  <g id="_лой_1" data-name="Слой 1"/>
  <g id="_лой_2" data-name="Слой 2">
    <g id="_лой_1-2" data-name="Слой 1">
      <g>
        <g>
          <polygon points="4.13 12.7 4.56 11.35 4.56 11.35 2.03 5.79 5.72 7.74 5.72 7.73 6.02 6.79 6.02 6.79 6.02 6.81 0 3.63 4.13 12.7 4.13 12.7" style="fill: #00abe3;"/>
          <polygon points="11.26 9.58 10.96 10.51 18.14 14.3 9.58 22.37 8.05 19.02 8.05 19.02 7.02 19.05 9.26 23.98 19.58 14.26 19.77 14.08 11.26 9.58" style="fill: #00abe3;"/>
        </g>
        <path d="M11.71,2.09l.08-.25-1.21,.02h-1.01l-1.97,.04-.67,2.1h0l-2.79,8.7h0l-.7,2.18-.28,.86h0l-1.69,5.25,4.22-.13,.57-1.79,.31-.97L11.71,2.09ZM4.99,19.93l-2.19,.07L8.3,2.85l2.17-.03L4.99,19.93Z" style="fill: #00abe3;"/>
        <polygon points="10.14 .05 9.56 1.88 10.57 1.86 10.84 1 13.02 .97 7.53 18.08 6.57 18.11 6.26 19.08 6.32 19.07 8.23 19.01 8.24 19.01 10.96 10.51 10.96 10.51 11.32 9.41 14.33 0 10.14 .05" style="fill: #00abe3;"/>
      </g>
    </g>
  </g>
</svg>