<?xml version="1.0" encoding="UTF-8"?>
<svg id="b" data-name="Слой 2" xmlns="http://www.w3.org/2000/svg" width="406.97" height="922.41" xmlns:xlink="http://www.w3.org/1999/xlink" viewBox="0 0 406.97 922.41">
  <defs>
    <clipPath id="d">
      <rect x="157.14" y="756.76" width="249.83" height="165.63" style="fill: none;"/>
    </clipPath>
  </defs>
  <g id="c" data-name="Слой 1">
    <g>
      <g>
        <rect x="108.62" y="318.22" width="4.89" height="47.29" style="fill: #fff;"/>
        <rect x="108.62" y="397.78" width="4.89" height="47.29" style="fill: #fff;"/>
        <rect x="108.62" y="477.33" width="4.89" height="47.29" style="fill: #fff;"/>
        <rect x="108.62" y="556.89" width="4.89" height="47.29" style="fill: #fff;"/>
        <rect x="108.62" y="636.44" width="4.89" height="47.29" style="fill: #fff;"/>
        <rect x="108.62" y="716" width="4.89" height="47.29" style="fill: #fff;"/>
        <rect x="108.62" y="875.11" width="4.89" height="47.29" style="fill: #fff;"/>
        <rect x="108.62" y="795.56" width="4.89" height="47.29" style="fill: #fff;"/>
        <rect x="108.62" width="4.89" height="47.29" style="fill: #fff;"/>
        <rect x="108.62" y="79.56" width="4.89" height="47.29" style="fill: #fff;"/>
        <rect x="108.62" y="159.11" width="4.89" height="47.29" style="fill: #fff;"/>
        <rect x="108.62" y="238.67" width="4.89" height="47.29" style="fill: #fff;"/>
      </g>
      <g>
        <g>
          <circle cx="167.02" cy="299.46" r="9.88" style="fill: #fff;"/>
          <circle cx="202.98" cy="299.46" r="9.88" style="fill: #fff;"/>
        </g>
        <g>
          <path d="m176.9,335.42c0,5.46-4.42,9.88-9.88,9.88-5.46,0-9.88-4.42-9.88-9.88s4.42-9.88,9.88-9.88,9.88,4.42,9.88,9.88Z" style="fill: #fff;"/>
          <path d="m212.86,335.42c0,5.46-4.42,9.88-9.88,9.88-5.46,0-9.88-4.42-9.88-9.88s4.42-9.88,9.88-9.88,9.88,4.42,9.88,9.88Z" style="fill: #fff;"/>
        </g>
      </g>
      <path d="m321.39,109.89l2.08-2.08-12.36-12.36,12.36-12.36-2.08-2.08-12.36,12.36-20.83-20.83,12.36-12.36-2.08-2.08-12.36,12.36-20.83-20.83,12.36-12.36-2.08-2.08-12.36,12.36-20.83-20.83,12.36-12.36-2.08-2.08-12.36,12.36-12.36-12.36-2.08,2.08,12.36,12.36-20.83,20.83-12.36-12.36-2.08,2.08,12.36,12.36-20.83,20.83-12.36-12.36-2.08,2.08,12.36,12.36-20.83,20.83-12.36-12.36-2.08,2.08,12.36,12.36-12.36,12.36,2.08,2.08,12.36-12.36,20.83,20.83-12.36,12.36,2.08,2.08,12.36-12.36,20.83,20.83-12.36,12.36,2.08,2.08,12.36-12.36,20.83,20.83-12.36,12.36,2.08,2.08,12.36-12.36,12.36,12.36,2.08-2.08-12.36-12.36,20.83-20.83,12.36,12.36,2.08-2.08-12.36-12.36,20.83-20.83,12.36,12.36,2.08-2.08-12.36-12.36,20.83-20.83,12.36,12.36Zm-37.35-37.35l-20.83,20.83-20.83-20.83,20.83-20.83,20.83,20.83Zm-22.91,22.91l-20.83,20.83-20.83-20.83,20.83-20.83,20.83,20.83Zm-20.83-66.65l20.83,20.83-20.83,20.83-20.83-20.83,20.83-20.83Zm-22.91,22.91l20.83,20.83-20.83,20.83-20.83-20.83,20.83-20.83Zm-43.74,43.74l20.83-20.83,20.83,20.83-20.83,20.83-20.83-20.83Zm22.91,22.91l20.83-20.83,20.83,20.83-20.83,20.83-20.83-20.83Zm43.74,43.74l-20.83-20.83,20.83-20.83,20.83,20.83-20.83,20.83Zm22.91-22.91l-20.83-20.83,20.83-20.83,20.83,20.83-20.83,20.83Zm22.91-22.91l-20.83-20.83,20.83-20.83,20.83,20.83-20.83,20.83Z" style="fill: #fff;"/>
      <polygon points="45.4 114.88 24.93 109.68 44.96 102.56 65 95.45 57.71 115.42 50.42 135.4 45.4 114.88" style="fill: #fff;"/>
      <g>
        <g>
          <g>
            <path d="m5.25,771.82c-2.9,0-5.25-2.36-5.25-5.25s2.36-5.25,5.25-5.25,5.25,2.36,5.25,5.25-2.36,5.25-5.25,5.25Zm0-9.43c-2.31,0-4.18,1.88-4.18,4.18s1.88,4.18,4.18,4.18,4.18-1.88,4.18-4.18-1.88-4.18-4.18-4.18Z" style="fill: #fff;"/>
            <path d="m22.42,771.82c-2.9,0-5.25-2.36-5.25-5.25s2.36-5.25,5.25-5.25,5.25,2.36,5.25,5.25-2.36,5.25-5.25,5.25Zm0-9.43c-2.31,0-4.18,1.88-4.18,4.18s1.88,4.18,4.18,4.18,4.18-1.88,4.18-4.18-1.88-4.18-4.18-4.18Z" style="fill: #fff;"/>
          </g>
          <g>
            <path d="m5.25,789c-2.9,0-5.25-2.36-5.25-5.25s2.36-5.25,5.25-5.25,5.25,2.36,5.25,5.25-2.36,5.25-5.25,5.25Zm0-9.43c-2.31,0-4.18,1.88-4.18,4.18s1.88,4.18,4.18,4.18,4.18-1.88,4.18-4.18-1.88-4.18-4.18-4.18Z" style="fill: #fff;"/>
            <path d="m22.42,789c-2.9,0-5.25-2.36-5.25-5.25s2.36-5.25,5.25-5.25,5.25,2.36,5.25,5.25-2.36,5.25-5.25,5.25Zm0-9.43c-2.31,0-4.18,1.88-4.18,4.18s1.88,4.18,4.18,4.18,4.18-1.88,4.18-4.18-1.88-4.18-4.18-4.18Z" style="fill: #fff;"/>
          </g>
        </g>
        <g>
          <g>
            <path d="m42.58,771.82c-2.9,0-5.25-2.36-5.25-5.25s2.36-5.25,5.25-5.25,5.25,2.36,5.25,5.25-2.36,5.25-5.25,5.25Zm0-9.43c-2.31,0-4.18,1.88-4.18,4.18s1.88,4.18,4.18,4.18,4.18-1.88,4.18-4.18-1.88-4.18-4.18-4.18Z" style="fill: #fff;"/>
            <path d="m59.75,771.82c-2.9,0-5.25-2.36-5.25-5.25s2.36-5.25,5.25-5.25,5.25,2.36,5.25,5.25-2.36,5.25-5.25,5.25Zm0-9.43c-2.31,0-4.18,1.88-4.18,4.18,0,2.31,1.88,4.18,4.18,4.18s4.18-1.88,4.18-4.18-1.88-4.18-4.18-4.18Z" style="fill: #fff;"/>
          </g>
          <g>
            <path d="m42.58,789c-2.9,0-5.25-2.36-5.25-5.25s2.36-5.25,5.25-5.25,5.25,2.36,5.25,5.25-2.36,5.25-5.25,5.25Zm0-9.43c-2.31,0-4.18,1.88-4.18,4.18s1.88,4.18,4.18,4.18,4.18-1.88,4.18-4.18-1.88-4.18-4.18-4.18Z" style="fill: #fff;"/>
            <path d="m59.75,789c-2.9,0-5.25-2.36-5.25-5.25s2.36-5.25,5.25-5.25,5.25,2.36,5.25,5.25-2.36,5.25-5.25,5.25Zm0-9.43c-2.31,0-4.18,1.88-4.18,4.18,0,2.31,1.88,4.18,4.18,4.18,2.31,0,4.18-1.88,4.18-4.18,0-2.31-1.88-4.18-4.18-4.18Z" style="fill: #fff;"/>
          </g>
        </g>
        <g>
          <g>
            <path d="m5.25,808.22c-2.9,0-5.25-2.36-5.25-5.25s2.36-5.25,5.25-5.25c2.89,0,5.25,2.36,5.25,5.25s-2.36,5.25-5.25,5.25Zm0-9.43c-2.31,0-4.18,1.88-4.18,4.18s1.88,4.18,4.18,4.18,4.18-1.88,4.18-4.18-1.88-4.18-4.18-4.18Z" style="fill: #fff;"/>
            <path d="m22.42,808.22c-2.9,0-5.25-2.36-5.25-5.25s2.36-5.25,5.25-5.25c2.9,0,5.25,2.36,5.25,5.25s-2.36,5.25-5.25,5.25Zm0-9.43c-2.31,0-4.18,1.88-4.18,4.18s1.88,4.18,4.18,4.18,4.18-1.88,4.18-4.18-1.88-4.18-4.18-4.18Z" style="fill: #fff;"/>
          </g>
          <g>
            <path d="m5.25,825.39c-2.9,0-5.25-2.36-5.25-5.25s2.36-5.25,5.25-5.25c2.89,0,5.25,2.36,5.25,5.25s-2.36,5.25-5.25,5.25Zm0-9.44c-2.31,0-4.18,1.88-4.18,4.18s1.88,4.18,4.18,4.18,4.18-1.88,4.18-4.18-1.88-4.18-4.18-4.18Z" style="fill: #fff;"/>
            <path d="m22.42,825.39c-2.9,0-5.25-2.36-5.25-5.25s2.36-5.25,5.25-5.25c2.9,0,5.25,2.36,5.25,5.25s-2.36,5.25-5.25,5.25Zm0-9.44c-2.31,0-4.18,1.88-4.18,4.18s1.88,4.18,4.18,4.18,4.18-1.88,4.18-4.18-1.88-4.18-4.18-4.18Z" style="fill: #fff;"/>
          </g>
        </g>
        <g>
          <g>
            <path d="m42.58,808.22c-2.9,0-5.25-2.36-5.25-5.25s2.36-5.25,5.25-5.25c2.89,0,5.25,2.36,5.25,5.25s-2.36,5.25-5.25,5.25Zm0-9.43c-2.31,0-4.18,1.88-4.18,4.18s1.88,4.18,4.18,4.18,4.18-1.88,4.18-4.18-1.88-4.18-4.18-4.18Z" style="fill: #fff;"/>
            <path d="m59.75,808.22c-2.9,0-5.25-2.36-5.25-5.25s2.36-5.25,5.25-5.25c2.9,0,5.25,2.36,5.25,5.25s-2.36,5.25-5.25,5.25Zm0-9.43c-2.31,0-4.18,1.88-4.18,4.18s1.88,4.18,4.18,4.18,4.18-1.88,4.18-4.18c0-2.31-1.88-4.18-4.18-4.18Z" style="fill: #fff;"/>
          </g>
          <g>
            <path d="m42.58,825.39c-2.9,0-5.25-2.36-5.25-5.25s2.36-5.25,5.25-5.25c2.89,0,5.25,2.36,5.25,5.25s-2.36,5.25-5.25,5.25Zm0-9.44c-2.31,0-4.18,1.88-4.18,4.18s1.88,4.18,4.18,4.18,4.18-1.88,4.18-4.18-1.88-4.18-4.18-4.18Z" style="fill: #fff;"/>
            <path d="m59.75,825.39c-2.9,0-5.25-2.36-5.25-5.25s2.36-5.25,5.25-5.25c2.9,0,5.25,2.36,5.25,5.25s-2.36,5.25-5.25,5.25Zm0-9.44c-2.31,0-4.18,1.88-4.18,4.18,0,2.31,1.88,4.18,4.18,4.18s4.18-1.88,4.18-4.18-1.88-4.18-4.18-4.18Z" style="fill: #fff;"/>
          </g>
        </g>
      </g>
      <g>
        <path d="m179,654.44c-3.16,0-5.72,2.57-5.72,5.72s2.57,5.72,5.72,5.72,5.72-2.57,5.72-5.72-2.57-5.72-5.72-5.72Zm0,11.08c-2.95,0-5.35-2.4-5.35-5.35s2.4-5.35,5.35-5.35,5.35,2.4,5.35,5.35-2.4,5.35-5.35,5.35Z" style="fill: #fff;"/>
        <path d="m179,648.53c-6.41,0-11.63,5.22-11.63,11.63s5.22,11.63,11.63,11.63,11.63-5.22,11.63-11.63-5.22-11.63-11.63-11.63Zm0,22.88c-6.21,0-11.26-5.05-11.26-11.26s5.05-11.26,11.26-11.26,11.26,5.05,11.26,11.26-5.05,11.26-11.26,11.26Z" style="fill: #fff;"/>
        <path d="m179.32,643.22c-9.34,0-16.95,7.6-16.95,16.95s7.6,16.95,16.95,16.95c9.34,0,16.95-7.6,16.95-16.95s-7.6-16.95-16.95-16.95Zm0,33.52c-9.14,0-16.57-7.43-16.57-16.57s7.43-16.57,16.57-16.57,16.57,7.43,16.57,16.57-7.43,16.57-16.57,16.57Z" style="fill: #fff;"/>
        <path d="m179.46,637.84c-12.31,0-22.32,10.01-22.32,22.32s10.01,22.32,22.32,22.32,22.32-10.01,22.32-22.32-10.01-22.32-22.32-22.32Zm0,44.28c-12.1,0-21.95-9.85-21.95-21.95s9.85-21.95,21.95-21.95,21.95,9.85,21.95,21.95-9.85,21.95-21.95,21.95Z" style="fill: #fff;"/>
      </g>
      <polygon points="50.74 580.93 46.75 594.96 42.22 580.99 37.7 567.02 51.35 572.43 65 577.85 50.74 580.93" style="fill: #fff;"/>
      <g style="clip-path: url(#d);">
        <g>
          <path d="m280.18,847.64c-15.92,0-28.87,12.95-28.87,28.87s12.95,28.87,28.87,28.87c15.92,0,28.87-12.95,28.87-28.87s-12.95-28.87-28.87-28.87Zm0,55.87c-14.89,0-27-12.11-27-27,0-14.89,12.11-27,27-27s27,12.11,27,27-12.11,27-27,27Z" style="fill: #fff;"/>
          <path d="m280.18,817.86c-32.33,0-58.64,26.31-58.64,58.65s26.31,58.64,58.64,58.64,58.65-26.31,58.65-58.64-26.31-58.65-58.65-58.65Zm0,115.41c-31.3,0-56.77-25.47-56.77-56.77s25.47-56.77,56.77-56.77,56.77,25.47,56.77,56.77-25.47,56.77-56.77,56.77Z" style="fill: #fff;"/>
          <path d="m281.77,791.04c-47.12,0-85.47,38.34-85.47,85.47s38.34,85.47,85.47,85.47,85.47-38.34,85.47-85.47-38.34-85.47-85.47-85.47Zm0,169.06c-46.09,0-83.59-37.5-83.59-83.59s37.5-83.59,83.59-83.59,83.59,37.5,83.59,83.59-37.5,83.59-83.59,83.59Z" style="fill: #fff;"/>
          <path d="m282.5,763.92c-62.08,0-112.59,50.51-112.59,112.59,0,62.08,50.51,112.59,112.59,112.59s112.59-50.51,112.59-112.59-50.51-112.59-112.59-112.59Zm0,223.31c-61.05,0-110.72-49.67-110.72-110.72s49.67-110.72,110.72-110.72,110.72,49.67,110.72,110.72c0,61.05-49.67,110.72-110.72,110.72Z" style="fill: #fff;"/>
        </g>
      </g>
      <g>
        <path d="m47.63,363.23c1.78,0,3.43-.86,4.47-2.31h12.9v-6.37h-12.9c-1.04-1.45-2.68-2.31-4.47-2.31-3.03,0-5.5,2.47-5.5,5.5,0,3.03,2.47,5.5,5.5,5.5Zm16.36-3.33h-12.43l-.15.23c-.83,1.3-2.24,2.08-3.77,2.08-2.47,0-4.48-2.01-4.48-4.48s2.01-4.48,4.48-4.48c1.53,0,2.94.78,3.77,2.08l.15.23h12.43v4.34Z" style="fill: #fff;"/>
        <path d="m47.63,390.7c1.78,0,3.43-.86,4.47-2.31h12.9v-6.37h-12.9c-1.04-1.45-2.68-2.31-4.47-2.31-3.03,0-5.5,2.47-5.5,5.5,0,3.03,2.47,5.5,5.5,5.5Zm16.36-3.32h-12.43l-.15.23c-.83,1.3-2.24,2.08-3.77,2.08-2.47,0-4.48-2.01-4.48-4.48s2.01-4.48,4.48-4.48c1.53,0,2.94.78,3.77,2.08l.15.23h12.43v4.35Z" style="fill: #fff;"/>
        <path d="m37.65,377.13c1.78,0,3.43-.86,4.46-2.31h22.88v-6.37h-22.88c-1.03-1.45-2.68-2.31-4.46-2.31-3.03,0-5.5,2.46-5.5,5.5s2.47,5.5,5.5,5.5Zm26.33-3.32h-22.41l-.15.23c-.83,1.3-2.24,2.08-3.77,2.08-2.47,0-4.49-2.01-4.49-4.48s2.01-4.48,4.49-4.48c1.53,0,2.94.78,3.77,2.08l.15.23h22.41v4.34Z" style="fill: #fff;"/>
      </g>
      <path d="m190.82,502.46c-.46,0-.89.09-1.3.22l-7.25-6.16h-8.35s-2.06,0-2.06,0l-5.94-5.06c.02-.19.06-.37.06-.57,0-2.44-1.97-4.41-4.41-4.41-2.44,0-4.41,1.97-4.41,4.41,0,2.43,1.97,4.41,4.41,4.41.46,0,.89-.09,1.3-.22l7.23,6.15v.02h10.44l5.94,5.05c-.02.19-.06.37-.06.57,0,2.44,1.97,4.41,4.41,4.41s4.41-1.97,4.41-4.41-1.97-4.41-4.41-4.41Z" style="fill: #fff;"/>
    </g>
  </g>
</svg>